<mxfile host="app.diagrams.net" modified="2023-07-24T09:32:08.367Z" agent="Mozilla/5.0 (X11; Ubuntu; Linux x86_64; rv:109.0) Gecko/20100101 Firefox/115.0" etag="MlZn92yFE46uja_tsR6K" version="21.6.5" type="github">
  <diagram name="Page-1" id="c3LqAOWwTMCYazVYp7-4">
    <mxGraphModel dx="1360" dy="751" grid="1" gridSize="10" guides="1" tooltips="1" connect="1" arrows="1" fold="1" page="1" pageScale="1" pageWidth="850" pageHeight="1100" math="0" shadow="0">
      <root>
        <mxCell id="0" />
        <mxCell id="1" parent="0" />
        <mxCell id="Prtp4ArOo3bmf41uNAg3-37" value="Docker Registry" style="whiteSpace=wrap;html=1;aspect=fixed;fillColor=none;horizontal=1;align=center;labelPosition=center;verticalLabelPosition=bottom;verticalAlign=top;" vertex="1" parent="1">
          <mxGeometry x="760" y="71.5" width="118.5" height="118.5" as="geometry" />
        </mxCell>
        <mxCell id="Prtp4ArOo3bmf41uNAg3-2" value="Code Repo" style="shape=image;html=1;verticalAlign=top;verticalLabelPosition=bottom;labelBackgroundColor=#ffffff;imageAspect=0;aspect=fixed;image=https://cdn2.iconfinder.com/data/icons/boxicons-regular-vol-2/24/bx-git-repo-forked-128.png" vertex="1" parent="1">
          <mxGeometry y="90" width="90" height="90" as="geometry" />
        </mxCell>
        <mxCell id="Prtp4ArOo3bmf41uNAg3-12" value="" style="group" vertex="1" connectable="0" parent="1">
          <mxGeometry x="360.5" y="40" width="120" height="460" as="geometry" />
        </mxCell>
        <mxCell id="Prtp4ArOo3bmf41uNAg3-3" value="" style="rounded=0;whiteSpace=wrap;html=1;" vertex="1" parent="Prtp4ArOo3bmf41uNAg3-12">
          <mxGeometry width="120" height="460" as="geometry" />
        </mxCell>
        <mxCell id="Prtp4ArOo3bmf41uNAg3-4" value="Build" style="rounded=0;whiteSpace=wrap;html=1;" vertex="1" parent="Prtp4ArOo3bmf41uNAg3-12">
          <mxGeometry x="7.5" y="25" width="105" height="35" as="geometry" />
        </mxCell>
        <mxCell id="Prtp4ArOo3bmf41uNAg3-5" value="Unit Test" style="rounded=0;whiteSpace=wrap;html=1;" vertex="1" parent="Prtp4ArOo3bmf41uNAg3-12">
          <mxGeometry x="7.5" y="92" width="105" height="35" as="geometry" />
        </mxCell>
        <mxCell id="Prtp4ArOo3bmf41uNAg3-6" value="Static Code Analysis" style="rounded=0;whiteSpace=wrap;html=1;" vertex="1" parent="Prtp4ArOo3bmf41uNAg3-12">
          <mxGeometry x="7.5" y="158" width="105" height="35" as="geometry" />
        </mxCell>
        <mxCell id="Prtp4ArOo3bmf41uNAg3-7" value="Docker Build" style="rounded=0;whiteSpace=wrap;html=1;" vertex="1" parent="Prtp4ArOo3bmf41uNAg3-12">
          <mxGeometry x="7.5" y="218.5" width="105" height="35" as="geometry" />
        </mxCell>
        <mxCell id="Prtp4ArOo3bmf41uNAg3-8" value="Docker Push" style="rounded=0;whiteSpace=wrap;html=1;" vertex="1" parent="Prtp4ArOo3bmf41uNAg3-12">
          <mxGeometry x="7.5" y="280" width="105" height="35" as="geometry" />
        </mxCell>
        <mxCell id="Prtp4ArOo3bmf41uNAg3-9" value="Update GitOps Repo" style="rounded=0;whiteSpace=wrap;html=1;" vertex="1" parent="Prtp4ArOo3bmf41uNAg3-12">
          <mxGeometry x="7.5" y="340" width="105" height="35" as="geometry" />
        </mxCell>
        <mxCell id="Prtp4ArOo3bmf41uNAg3-10" value="Run Automated&amp;nbsp; Test" style="rounded=0;whiteSpace=wrap;html=1;" vertex="1" parent="Prtp4ArOo3bmf41uNAg3-12">
          <mxGeometry x="7.5" y="400" width="105" height="35" as="geometry" />
        </mxCell>
        <mxCell id="Prtp4ArOo3bmf41uNAg3-1" value="" style="shape=image;html=1;verticalAlign=top;verticalLabelPosition=bottom;labelBackgroundColor=#ffffff;imageAspect=0;aspect=fixed;image=https://cdn4.iconfinder.com/data/icons/socialcones/508/Gitlab-128.png" vertex="1" parent="Prtp4ArOo3bmf41uNAg3-12">
          <mxGeometry x="1" y="1" width="20" height="20" as="geometry" />
        </mxCell>
        <mxCell id="Prtp4ArOo3bmf41uNAg3-14" value="" style="group" vertex="1" connectable="0" parent="1">
          <mxGeometry x="600" y="40" width="120" height="790" as="geometry" />
        </mxCell>
        <mxCell id="Prtp4ArOo3bmf41uNAg3-15" value="" style="rounded=0;whiteSpace=wrap;html=1;" vertex="1" parent="Prtp4ArOo3bmf41uNAg3-14">
          <mxGeometry width="120" height="630" as="geometry" />
        </mxCell>
        <mxCell id="Prtp4ArOo3bmf41uNAg3-16" value="Build" style="rounded=0;whiteSpace=wrap;html=1;" vertex="1" parent="Prtp4ArOo3bmf41uNAg3-14">
          <mxGeometry x="7.5" y="26.571428571428573" width="105" height="40" as="geometry" />
        </mxCell>
        <mxCell id="Prtp4ArOo3bmf41uNAg3-17" value="Unit Test" style="rounded=0;whiteSpace=wrap;html=1;" vertex="1" parent="Prtp4ArOo3bmf41uNAg3-14">
          <mxGeometry x="7.5" y="87.14285714285715" width="105" height="40" as="geometry" />
        </mxCell>
        <mxCell id="Prtp4ArOo3bmf41uNAg3-18" value="Static Code Analysis" style="rounded=0;whiteSpace=wrap;html=1;" vertex="1" parent="Prtp4ArOo3bmf41uNAg3-14">
          <mxGeometry x="7.5" y="154.57142857142858" width="105" height="40" as="geometry" />
        </mxCell>
        <mxCell id="Prtp4ArOo3bmf41uNAg3-19" value="Docker Build" style="rounded=0;whiteSpace=wrap;html=1;" vertex="1" parent="Prtp4ArOo3bmf41uNAg3-14">
          <mxGeometry x="7.5" y="222.71428571428572" width="105" height="40" as="geometry" />
        </mxCell>
        <mxCell id="Prtp4ArOo3bmf41uNAg3-20" value="Docker Push" style="rounded=0;whiteSpace=wrap;html=1;" vertex="1" parent="Prtp4ArOo3bmf41uNAg3-14">
          <mxGeometry x="7.5" y="291" width="105" height="40" as="geometry" />
        </mxCell>
        <mxCell id="Prtp4ArOo3bmf41uNAg3-21" value="Update GitOps Repo" style="rounded=0;whiteSpace=wrap;html=1;" vertex="1" parent="Prtp4ArOo3bmf41uNAg3-14">
          <mxGeometry x="7.5" y="361.5714285714286" width="105" height="40" as="geometry" />
        </mxCell>
        <mxCell id="Prtp4ArOo3bmf41uNAg3-22" value="Run Extended Automated&amp;nbsp; Test" style="rounded=0;whiteSpace=wrap;html=1;" vertex="1" parent="Prtp4ArOo3bmf41uNAg3-14">
          <mxGeometry x="7.5" y="433.14285714285717" width="105" height="40" as="geometry" />
        </mxCell>
        <mxCell id="Prtp4ArOo3bmf41uNAg3-23" value="Run Peformance&amp;nbsp; Test" style="rounded=0;whiteSpace=wrap;html=1;" vertex="1" parent="Prtp4ArOo3bmf41uNAg3-14">
          <mxGeometry x="7.5" y="501.7142857142858" width="105" height="40" as="geometry" />
        </mxCell>
        <mxCell id="Prtp4ArOo3bmf41uNAg3-24" value="Run Security Test" style="rounded=0;whiteSpace=wrap;html=1;" vertex="1" parent="Prtp4ArOo3bmf41uNAg3-14">
          <mxGeometry x="7.5" y="571.8571428571429" width="105" height="40" as="geometry" />
        </mxCell>
        <mxCell id="Prtp4ArOo3bmf41uNAg3-26" value="" style="shape=image;html=1;verticalAlign=top;verticalLabelPosition=bottom;labelBackgroundColor=#ffffff;imageAspect=0;aspect=fixed;image=https://cdn4.iconfinder.com/data/icons/socialcones/508/Gitlab-128.png" vertex="1" parent="Prtp4ArOo3bmf41uNAg3-14">
          <mxGeometry x="1" y="1" width="18.5" height="18.5" as="geometry" />
        </mxCell>
        <mxCell id="Prtp4ArOo3bmf41uNAg3-31" style="edgeStyle=orthogonalEdgeStyle;shape=link;rounded=0;orthogonalLoop=1;jettySize=auto;html=1;entryX=1.011;entryY=0.4;entryDx=0;entryDy=0;entryPerimeter=0;" edge="1" parent="1" source="Prtp4ArOo3bmf41uNAg3-28" target="Prtp4ArOo3bmf41uNAg3-2">
          <mxGeometry relative="1" as="geometry" />
        </mxCell>
        <mxCell id="Prtp4ArOo3bmf41uNAg3-32" value="Main/Master" style="edgeLabel;html=1;align=center;verticalAlign=middle;resizable=0;points=[];" vertex="1" connectable="0" parent="Prtp4ArOo3bmf41uNAg3-31">
          <mxGeometry x="-0.5334" y="1" relative="1" as="geometry">
            <mxPoint x="-26" y="-13" as="offset" />
          </mxGeometry>
        </mxCell>
        <mxCell id="Prtp4ArOo3bmf41uNAg3-35" style="edgeStyle=orthogonalEdgeStyle;rounded=0;orthogonalLoop=1;jettySize=auto;html=1;entryX=0.5;entryY=0;entryDx=0;entryDy=0;" edge="1" parent="1" source="Prtp4ArOo3bmf41uNAg3-28" target="Prtp4ArOo3bmf41uNAg3-15">
          <mxGeometry relative="1" as="geometry">
            <Array as="points">
              <mxPoint x="240" y="95" />
              <mxPoint x="240" y="10" />
              <mxPoint x="660" y="10" />
            </Array>
          </mxGeometry>
        </mxCell>
        <mxCell id="Prtp4ArOo3bmf41uNAg3-28" value="Merge Request" style="shape=image;html=1;verticalAlign=top;verticalLabelPosition=bottom;labelBackgroundColor=#ffffff;imageAspect=0;aspect=fixed;image=https://cdn1.iconfinder.com/data/icons/ionicons-fill-vol-1/512/git-pull-request-128.png" vertex="1" parent="1">
          <mxGeometry x="120" y="60.5" width="69" height="69" as="geometry" />
        </mxCell>
        <mxCell id="Prtp4ArOo3bmf41uNAg3-30" style="edgeStyle=orthogonalEdgeStyle;shape=link;rounded=0;orthogonalLoop=1;jettySize=auto;html=1;" edge="1" parent="1" source="Prtp4ArOo3bmf41uNAg3-29" target="Prtp4ArOo3bmf41uNAg3-2">
          <mxGeometry relative="1" as="geometry" />
        </mxCell>
        <mxCell id="Prtp4ArOo3bmf41uNAg3-33" value="Develop" style="edgeLabel;html=1;align=center;verticalAlign=middle;resizable=0;points=[];" vertex="1" connectable="0" parent="Prtp4ArOo3bmf41uNAg3-30">
          <mxGeometry x="-0.6296" y="-1" relative="1" as="geometry">
            <mxPoint x="-5" y="13" as="offset" />
          </mxGeometry>
        </mxCell>
        <mxCell id="Prtp4ArOo3bmf41uNAg3-34" style="edgeStyle=orthogonalEdgeStyle;rounded=0;orthogonalLoop=1;jettySize=auto;html=1;exitX=1;exitY=0.5;exitDx=0;exitDy=0;entryX=0.563;entryY=0.002;entryDx=0;entryDy=0;entryPerimeter=0;" edge="1" parent="1" source="Prtp4ArOo3bmf41uNAg3-29" target="Prtp4ArOo3bmf41uNAg3-3">
          <mxGeometry relative="1" as="geometry" />
        </mxCell>
        <mxCell id="Prtp4ArOo3bmf41uNAg3-29" value="Merge" style="shape=image;html=1;verticalAlign=top;verticalLabelPosition=bottom;labelBackgroundColor=#ffffff;imageAspect=0;aspect=fixed;image=https://cdn0.iconfinder.com/data/icons/phosphor-fill-vol-3/256/git-merge-fill-128.png" vertex="1" parent="1">
          <mxGeometry x="120" y="150" width="72" height="72" as="geometry" />
        </mxCell>
        <mxCell id="Prtp4ArOo3bmf41uNAg3-36" value="" style="image;sketch=0;aspect=fixed;html=1;points=[];align=center;fontSize=12;image=img/lib/mscae/Docker.svg;" vertex="1" parent="1">
          <mxGeometry x="800" y="71.5" width="36.59" height="30" as="geometry" />
        </mxCell>
        <mxCell id="Prtp4ArOo3bmf41uNAg3-38" value="" style="shape=image;html=1;verticalAlign=top;verticalLabelPosition=bottom;labelBackgroundColor=#ffffff;imageAspect=0;aspect=fixed;image=https://cdn4.iconfinder.com/data/icons/socialcones/508/Gitlab-128.png" vertex="1" parent="1">
          <mxGeometry x="766" y="71.5" width="20.5" height="18.5" as="geometry" />
        </mxCell>
        <mxCell id="Prtp4ArOo3bmf41uNAg3-40" value="GitOps Repo" style="shape=image;html=1;verticalAlign=top;verticalLabelPosition=bottom;labelBackgroundColor=#ffffff;imageAspect=0;aspect=fixed;image=https://cdn2.iconfinder.com/data/icons/boxicons-regular-vol-2/24/bx-git-repo-forked-128.png" vertex="1" parent="1">
          <mxGeometry x="10" y="340" width="90" height="90" as="geometry" />
        </mxCell>
        <mxCell id="Prtp4ArOo3bmf41uNAg3-41" style="edgeStyle=orthogonalEdgeStyle;rounded=0;orthogonalLoop=1;jettySize=auto;html=1;exitX=0;exitY=0.5;exitDx=0;exitDy=0;" edge="1" parent="1" source="Prtp4ArOo3bmf41uNAg3-9" target="Prtp4ArOo3bmf41uNAg3-40">
          <mxGeometry relative="1" as="geometry" />
        </mxCell>
        <mxCell id="Prtp4ArOo3bmf41uNAg3-42" style="edgeStyle=orthogonalEdgeStyle;rounded=0;orthogonalLoop=1;jettySize=auto;html=1;entryX=1;entryY=0.5;entryDx=0;entryDy=0;" edge="1" parent="1" source="Prtp4ArOo3bmf41uNAg3-21" target="Prtp4ArOo3bmf41uNAg3-40">
          <mxGeometry relative="1" as="geometry">
            <Array as="points">
              <mxPoint x="510" y="420" />
              <mxPoint x="510" y="520" />
              <mxPoint x="130" y="520" />
              <mxPoint x="130" y="385" />
            </Array>
          </mxGeometry>
        </mxCell>
        <mxCell id="Prtp4ArOo3bmf41uNAg3-45" value="Dev Kube Cluster" style="sketch=0;points=[[0,0,0],[0.25,0,0],[0.5,0,0],[0.75,0,0],[1,0,0],[0,1,0],[0.25,1,0],[0.5,1,0],[0.75,1,0],[1,1,0],[0,0.25,0],[0,0.5,0],[0,0.75,0],[1,0.25,0],[1,0.5,0],[1,0.75,0]];outlineConnect=0;fontColor=#232F3E;gradientColor=#F78E04;gradientDirection=north;fillColor=#D05C17;strokeColor=#ffffff;dashed=0;verticalLabelPosition=bottom;verticalAlign=top;align=center;html=1;fontSize=12;fontStyle=0;aspect=fixed;shape=mxgraph.aws4.resourceIcon;resIcon=mxgraph.aws4.eks;" vertex="1" parent="1">
          <mxGeometry x="395" y="580" width="78" height="78" as="geometry" />
        </mxCell>
        <mxCell id="Prtp4ArOo3bmf41uNAg3-46" value="Test Kube Cluster" style="sketch=0;points=[[0,0,0],[0.25,0,0],[0.5,0,0],[0.75,0,0],[1,0,0],[0,1,0],[0.25,1,0],[0.5,1,0],[0.75,1,0],[1,1,0],[0,0.25,0],[0,0.5,0],[0,0.75,0],[1,0.25,0],[1,0.5,0],[1,0.75,0]];outlineConnect=0;fontColor=#232F3E;gradientColor=#F78E04;gradientDirection=north;fillColor=#D05C17;strokeColor=#ffffff;dashed=0;verticalLabelPosition=bottom;verticalAlign=top;align=center;html=1;fontSize=12;fontStyle=0;aspect=fixed;shape=mxgraph.aws4.resourceIcon;resIcon=mxgraph.aws4.eks;" vertex="1" parent="1">
          <mxGeometry x="397.5" y="724" width="78" height="78" as="geometry" />
        </mxCell>
        <mxCell id="Prtp4ArOo3bmf41uNAg3-47" style="edgeStyle=orthogonalEdgeStyle;rounded=0;orthogonalLoop=1;jettySize=auto;html=1;exitX=1;exitY=0.5;exitDx=0;exitDy=0;entryX=0;entryY=0.5;entryDx=0;entryDy=0;entryPerimeter=0;" edge="1" parent="1" source="Prtp4ArOo3bmf41uNAg3-10" target="Prtp4ArOo3bmf41uNAg3-45">
          <mxGeometry relative="1" as="geometry" />
        </mxCell>
        <mxCell id="Prtp4ArOo3bmf41uNAg3-48" style="edgeStyle=orthogonalEdgeStyle;rounded=0;orthogonalLoop=1;jettySize=auto;html=1;entryX=1;entryY=0.25;entryDx=0;entryDy=0;entryPerimeter=0;" edge="1" parent="1" source="Prtp4ArOo3bmf41uNAg3-22" target="Prtp4ArOo3bmf41uNAg3-46">
          <mxGeometry relative="1" as="geometry" />
        </mxCell>
        <mxCell id="Prtp4ArOo3bmf41uNAg3-49" style="edgeStyle=orthogonalEdgeStyle;rounded=0;orthogonalLoop=1;jettySize=auto;html=1;entryX=1;entryY=0.5;entryDx=0;entryDy=0;entryPerimeter=0;" edge="1" parent="1" source="Prtp4ArOo3bmf41uNAg3-23" target="Prtp4ArOo3bmf41uNAg3-46">
          <mxGeometry relative="1" as="geometry" />
        </mxCell>
        <mxCell id="Prtp4ArOo3bmf41uNAg3-50" style="edgeStyle=orthogonalEdgeStyle;rounded=0;orthogonalLoop=1;jettySize=auto;html=1;exitX=0;exitY=0.5;exitDx=0;exitDy=0;entryX=1;entryY=0.75;entryDx=0;entryDy=0;entryPerimeter=0;" edge="1" parent="1" source="Prtp4ArOo3bmf41uNAg3-24" target="Prtp4ArOo3bmf41uNAg3-46">
          <mxGeometry relative="1" as="geometry" />
        </mxCell>
        <mxCell id="Prtp4ArOo3bmf41uNAg3-53" value="/dev&lt;br&gt;Ch" style="whiteSpace=wrap;html=1;aspect=fixed;" vertex="1" parent="1">
          <mxGeometry x="760" y="150" width="40" height="40" as="geometry" />
        </mxCell>
        <mxCell id="Prtp4ArOo3bmf41uNAg3-61" style="edgeStyle=orthogonalEdgeStyle;rounded=0;orthogonalLoop=1;jettySize=auto;html=1;exitX=1;exitY=0.5;exitDx=0;exitDy=0;entryX=-0.017;entryY=0.9;entryDx=0;entryDy=0;entryPerimeter=0;" edge="1" parent="1" source="Prtp4ArOo3bmf41uNAg3-54" target="Prtp4ArOo3bmf41uNAg3-60">
          <mxGeometry relative="1" as="geometry" />
        </mxCell>
        <mxCell id="Prtp4ArOo3bmf41uNAg3-54" value="/test&lt;br&gt;Ch" style="whiteSpace=wrap;html=1;aspect=fixed;" vertex="1" parent="1">
          <mxGeometry x="836.59" y="150" width="40" height="40" as="geometry" />
        </mxCell>
        <mxCell id="Prtp4ArOo3bmf41uNAg3-64" style="edgeStyle=orthogonalEdgeStyle;rounded=0;orthogonalLoop=1;jettySize=auto;html=1;exitX=1;exitY=0.25;exitDx=0;exitDy=0;entryX=0;entryY=0.3333333333333333;entryDx=0;entryDy=0;entryPerimeter=0;" edge="1" parent="1" source="Prtp4ArOo3bmf41uNAg3-55" target="Prtp4ArOo3bmf41uNAg3-63">
          <mxGeometry relative="1" as="geometry" />
        </mxCell>
        <mxCell id="Prtp4ArOo3bmf41uNAg3-65" value="Pull" style="edgeLabel;html=1;align=center;verticalAlign=middle;resizable=0;points=[];" vertex="1" connectable="0" parent="Prtp4ArOo3bmf41uNAg3-64">
          <mxGeometry x="-0.0632" y="3" relative="1" as="geometry">
            <mxPoint as="offset" />
          </mxGeometry>
        </mxCell>
        <mxCell id="Prtp4ArOo3bmf41uNAg3-55" value="/Stable&lt;br&gt;Ch" style="whiteSpace=wrap;html=1;aspect=fixed;" vertex="1" parent="1">
          <mxGeometry x="838.5" y="101.5" width="40" height="40" as="geometry" />
        </mxCell>
        <mxCell id="Prtp4ArOo3bmf41uNAg3-57" style="edgeStyle=orthogonalEdgeStyle;rounded=0;orthogonalLoop=1;jettySize=auto;html=1;exitX=1;exitY=0.5;exitDx=0;exitDy=0;entryX=-0.008;entryY=0.89;entryDx=0;entryDy=0;entryPerimeter=0;" edge="1" parent="1" source="Prtp4ArOo3bmf41uNAg3-8" target="Prtp4ArOo3bmf41uNAg3-37">
          <mxGeometry relative="1" as="geometry">
            <Array as="points">
              <mxPoint x="730" y="338" />
              <mxPoint x="730" y="177" />
            </Array>
          </mxGeometry>
        </mxCell>
        <mxCell id="Prtp4ArOo3bmf41uNAg3-58" style="edgeStyle=orthogonalEdgeStyle;rounded=0;orthogonalLoop=1;jettySize=auto;html=1;exitX=1;exitY=0.5;exitDx=0;exitDy=0;entryX=0.835;entryY=0.983;entryDx=0;entryDy=0;entryPerimeter=0;" edge="1" parent="1" source="Prtp4ArOo3bmf41uNAg3-20" target="Prtp4ArOo3bmf41uNAg3-37">
          <mxGeometry relative="1" as="geometry" />
        </mxCell>
        <mxCell id="Prtp4ArOo3bmf41uNAg3-62" style="edgeStyle=orthogonalEdgeStyle;rounded=0;orthogonalLoop=1;jettySize=auto;html=1;exitX=0;exitY=0.25;exitDx=0;exitDy=0;entryX=1.004;entryY=0.443;entryDx=0;entryDy=0;entryPerimeter=0;" edge="1" parent="1" source="Prtp4ArOo3bmf41uNAg3-60" target="Prtp4ArOo3bmf41uNAg3-37">
          <mxGeometry relative="1" as="geometry" />
        </mxCell>
        <mxCell id="Prtp4ArOo3bmf41uNAg3-60" value="Release Management" style="shape=process;whiteSpace=wrap;html=1;backgroundOutline=1;" vertex="1" parent="1">
          <mxGeometry x="920" y="109" width="120" height="60" as="geometry" />
        </mxCell>
        <mxCell id="Prtp4ArOo3bmf41uNAg3-63" value="External User" style="shape=umlActor;verticalLabelPosition=bottom;verticalAlign=top;html=1;outlineConnect=0;" vertex="1" parent="1">
          <mxGeometry x="940" y="20" width="30" height="60" as="geometry" />
        </mxCell>
        <mxCell id="Prtp4ArOo3bmf41uNAg3-66" value="&lt;div&gt;Dev AWS Account&lt;/div&gt;" style="points=[[0,0],[0.25,0],[0.5,0],[0.75,0],[1,0],[1,0.25],[1,0.5],[1,0.75],[1,1],[0.75,1],[0.5,1],[0.25,1],[0,1],[0,0.75],[0,0.5],[0,0.25]];outlineConnect=0;gradientColor=none;html=1;whiteSpace=wrap;fontSize=12;fontStyle=0;container=1;pointerEvents=0;collapsible=0;recursiveResize=0;shape=mxgraph.aws4.group;grIcon=mxgraph.aws4.group_account;strokeColor=#CD2264;fillColor=none;verticalAlign=top;align=left;spacingLeft=30;fontColor=#CD2264;dashed=0;" vertex="1" parent="1">
          <mxGeometry x="362" y="550" width="148" height="130" as="geometry" />
        </mxCell>
        <mxCell id="Prtp4ArOo3bmf41uNAg3-67" value="&lt;div&gt;Test AWS Account&lt;/div&gt;" style="points=[[0,0],[0.25,0],[0.5,0],[0.75,0],[1,0],[1,0.25],[1,0.5],[1,0.75],[1,1],[0.75,1],[0.5,1],[0.25,1],[0,1],[0,0.75],[0,0.5],[0,0.25]];outlineConnect=0;gradientColor=none;html=1;whiteSpace=wrap;fontSize=12;fontStyle=0;container=1;pointerEvents=0;collapsible=0;recursiveResize=0;shape=mxgraph.aws4.group;grIcon=mxgraph.aws4.group_account;strokeColor=#1a5fb4;fillColor=none;verticalAlign=top;align=left;spacingLeft=30;fontColor=#1a5fb4;dashed=0;" vertex="1" parent="1">
          <mxGeometry x="363" y="698" width="148" height="130" as="geometry" />
        </mxCell>
      </root>
    </mxGraphModel>
  </diagram>
</mxfile>
